<svg width="102" height="79" viewBox="0 0 102 79" fill="none" xmlns="http://www.w3.org/2000/svg">
    <g clip-path="url(#clip0_3_10)">
        <path
            d="M46.9982 68.3049C44.8798 68.3049 42.7734 68.3049 40.6687 68.3049C39.5251 68.3049 38.3781 68.3598 37.2413 68.2826C35.7378 68.1797 34.9283 67.18 34.4684 65.7962C30.7 68.3563 27.004 70.8633 23.3131 73.3755C20.6383 75.1949 17.967 77.0177 15.294 78.8388C15.2475 78.8714 15.1993 78.9228 15.1494 78.928C14.817 78.9588 14.4828 78.9777 14.1504 79C14.2021 78.6913 14.1573 78.3158 14.3209 78.0826C15.4697 76.4433 16.6564 74.8314 17.8379 73.216C20.5006 69.5687 23.1667 65.9248 25.8294 62.2774C25.9275 62.142 26.0102 61.9945 26.1893 61.715C23.9176 62.2174 21.7871 62.6856 19.6566 63.1605C17.5881 63.6201 15.5265 64.102 13.4512 64.5307C13.1739 64.589 12.8432 64.3969 12.5383 64.3215C12.6486 64.0299 12.6761 63.6493 12.8811 63.4572C16.0536 60.4889 19.2484 57.5464 22.4364 54.5952C23.084 53.9968 23.7264 53.3914 24.3051 52.6421C23.1271 52.8942 21.9456 53.1394 20.7692 53.4C19.2037 53.7464 17.645 54.1271 16.0708 54.434C15.7367 54.4992 15.3526 54.3157 14.9926 54.2471C15.1046 53.9247 15.139 53.5372 15.3423 53.2886C17.4727 50.7078 19.6308 48.1511 21.7785 45.5858C21.9904 45.332 22.1884 45.0645 22.5398 44.6152C20.647 44.9341 18.9694 45.2136 17.2919 45.4983C11.8133 46.4277 6.33633 47.3657 0.854236 48.2694C0.595891 48.3123 0.287598 48.0482 0.00341797 47.9281C0.13948 47.6829 0.213539 47.3383 0.42366 47.2062C5.13933 44.2208 9.8705 41.2594 14.5982 38.2928C16.0208 37.4011 17.4383 36.5043 18.7955 35.4583C17.2626 35.7841 15.7315 36.1099 14.1986 36.434C13.9747 36.482 13.744 36.566 13.5235 36.5454C13.2393 36.5197 12.9638 36.4048 12.683 36.3294C12.7657 36.0499 12.7709 35.7018 12.9465 35.5028C14.5379 33.704 16.1586 31.931 17.7724 30.151C18.0928 29.7978 18.4148 29.4479 18.8816 28.9369C17.7294 29.0175 16.7769 29.0741 15.8245 29.153C11.3982 29.5251 6.9753 29.9127 2.54726 30.2693C2.05296 30.3088 1.31065 30.626 1.14186 29.8938C0.967908 29.141 1.79634 29.141 2.25102 28.973C10.4664 25.9344 18.6887 22.9198 26.9093 19.8983C27.1487 19.8109 27.3863 19.7166 27.8531 19.5365C26.8421 19.2038 26.0326 18.9243 25.2145 18.6688C21.5253 17.5182 17.8275 16.3882 14.1453 15.2135C13.5201 15.0146 12.652 14.8277 12.6796 14.0012C12.7071 13.2021 13.508 12.9946 14.1918 12.8403C17.366 12.1304 20.5763 12.2555 23.7643 12.6139C28.7401 13.1747 33.7003 13.8606 38.6157 14.4865C38.0284 13.9583 37.3102 13.3479 36.6317 12.6945C34.2222 10.3744 31.823 8.04404 29.4324 5.70508C29.1517 5.43071 28.84 5.09633 28.7504 4.73794C28.6161 4.19778 28.5024 3.55303 28.6763 3.05745C28.9088 2.39555 29.6942 2.34239 30.2436 2.52759C31.6731 3.01115 33.1027 3.53588 34.4512 4.20807C38.4676 6.21437 42.0397 8.89971 45.5876 11.6125C46.6744 12.4425 47.7715 13.2587 48.9289 14.1281C49.9916 12.4253 50.9388 10.7311 52.0583 9.15693C54.1096 6.27438 56.2608 3.46386 58.3757 0.627607C58.4774 0.492139 58.5996 0.329235 58.7478 0.279506C59.1284 0.149183 59.6244 -0.10632 59.8948 0.0325777C60.1566 0.166331 60.3788 0.780223 60.2961 1.09917C60.0016 2.22407 59.571 3.31296 59.1852 4.41385C58.0554 7.64278 56.9204 10.8717 55.7957 14.1024C55.7044 14.3664 55.6614 14.6459 55.5736 15.0146C56.774 14.4556 57.8711 13.8897 59.0147 13.4353C59.7226 13.1524 60.489 12.9586 61.2468 12.8643C62.5541 12.6997 63.1982 13.4096 62.9864 14.6974C62.914 15.1364 62.7504 15.5599 62.5902 16.1292C63.8423 15.5496 64.9859 15.0009 66.1451 14.4882C71.932 11.9297 77.7276 9.39186 83.7763 7.48845C84.7012 7.19694 85.6536 6.938 86.6112 6.83683C87.0624 6.79053 87.7428 7.03403 87.9718 7.37527C88.1423 7.63078 87.8909 8.39385 87.5877 8.69051C86.6525 9.60449 85.6381 10.4516 84.5892 11.237C80.9689 13.948 77.3211 16.6214 73.687 19.3119C73.4442 19.4919 73.2254 19.7046 73.1273 19.7886C76.5753 20.6648 80.0716 21.4914 83.5266 22.4619C84.7511 22.8066 85.8947 23.4616 87.0332 24.0584C87.3569 24.2281 87.7686 24.7409 87.71 25.0015C87.6325 25.3496 87.1744 25.792 86.8127 25.8675C84.913 26.2619 82.9909 26.5517 81.0774 26.8826C80.516 26.9804 79.9545 27.0901 79.1398 27.241C80.4367 27.9715 81.5028 28.6471 82.631 29.1942C87.9356 31.768 93.2593 34.3042 98.5743 36.8575C99.4768 37.2914 100.405 37.6858 101.263 38.195C101.594 38.3922 101.759 38.8621 101.998 39.2085C101.638 39.3902 101.284 39.7195 100.918 39.7298C97.6804 39.8327 94.4373 39.8412 91.1994 39.9561C88.318 40.059 85.4417 40.2631 82.4484 40.4294C84.0811 41.6555 85.6312 42.7649 87.1124 43.9567C87.9305 44.6152 88.7193 45.3491 89.3634 46.1705C90.0127 46.9987 89.7406 47.7395 88.6935 47.8098C87.3449 47.9007 85.9584 47.7601 84.6133 47.5526C82.3313 47.1994 80.0699 46.7175 77.6656 46.2631C78.7971 47.4532 79.9373 48.4649 80.8535 49.6481C83.4094 52.9456 85.8861 56.3049 88.3473 59.6727C88.5798 59.9916 88.492 60.5438 88.5522 60.9879C88.0734 61.0394 87.5171 61.276 87.1296 61.1131C83.387 59.5321 79.672 57.8842 75.9501 56.2551C75.6935 56.142 75.4352 56.0322 75.0511 56.0408C75.6505 56.7696 76.2533 57.4949 76.8457 58.2271C79.3293 61.3 81.682 64.4638 83.5197 67.9757C83.6781 68.2775 83.8813 68.5981 83.9037 68.9205C83.9296 69.2875 83.8951 69.8139 83.6643 69.9991C83.4404 70.1774 82.86 70.1397 82.5724 69.97C81.4667 69.3166 80.435 68.5381 79.3396 67.8642C74.9013 65.1394 70.4491 62.4352 66.0004 59.7276C65.9125 59.6744 65.7937 59.6744 65.6094 59.6315C65.4561 60.6827 65.3149 61.6893 65.1633 62.6941C64.7741 65.2629 63.0966 67.024 60.5355 67.3943C58.951 67.6241 57.3424 67.6859 55.7441 67.8265C55.4048 67.8556 55.0672 67.8985 54.6332 67.9465M14.1763 13.9806C14.488 14.1349 14.5741 14.1915 14.6688 14.2224C19.3931 15.704 24.1191 17.1735 28.8365 18.6791C29.317 18.8317 29.7304 19.1918 30.1747 19.4559C29.7579 19.7526 29.3825 20.159 28.9192 20.3305C22.3434 22.7654 15.7556 25.1696 9.17296 27.5823C8.21536 27.9338 7.26293 28.299 6.30705 28.6591C6.66529 28.7655 6.98219 28.7878 7.29393 28.762C11.4068 28.4242 15.5179 28.071 19.6325 27.752C19.9856 27.7246 20.3542 27.9132 20.7158 28.0024C20.5798 28.3453 20.5247 28.7586 20.2956 29.0192C18.8213 30.6929 17.3074 32.3322 15.809 33.9835C15.5007 34.3231 15.1993 34.6677 14.7532 35.1667C17.1696 34.6557 19.3501 34.2013 21.5288 33.728C21.9886 33.6286 22.5363 33.44 22.6741 34.0281C22.7292 34.2665 22.2952 34.726 21.9817 34.9232C17.5072 37.7595 13.0154 40.5649 8.52882 43.3823C6.89263 44.4094 5.25989 45.4451 3.62542 46.4757C3.92855 46.6043 4.17484 46.6112 4.41424 46.57C10.7368 45.4932 17.0577 44.4043 23.3837 43.3463C23.7178 43.2897 24.0967 43.4886 24.4532 43.5675C24.331 43.8933 24.2845 44.2808 24.0743 44.538C22.464 46.5066 20.8209 48.4494 19.1899 50.4026C18.5044 51.224 17.8241 52.0488 17.0094 53.0313C17.4521 52.9593 17.6725 52.9336 17.8895 52.8856C20.5746 52.2974 23.258 51.6938 25.9499 51.1348C26.2634 51.0696 26.6268 51.248 26.9661 51.3131C26.8472 51.6269 26.8145 52.035 26.5941 52.2425C23.7333 54.9193 20.8433 57.5652 17.9636 60.2248C17.0318 61.0857 16.1138 61.9585 15.0254 62.9805C15.48 62.9291 15.6798 62.9239 15.871 62.881C19.5016 62.0648 23.1288 61.2297 26.7646 60.4409C27.1521 60.3569 27.5999 60.5404 28.0184 60.5987C27.8927 60.9485 27.8393 61.3515 27.6309 61.6413C24.87 65.4635 22.0851 69.2686 19.307 73.0806C18.5905 74.0648 17.8792 75.0526 17.1662 76.0386C22.7878 72.4135 28.2768 68.6804 33.7468 64.9199C33.9431 64.7845 34.074 64.3386 34.0155 64.0882C33.2525 60.8096 32.3655 57.5566 31.6783 54.2626C30.6311 49.24 29.6202 44.2036 28.79 39.1433C28.3904 36.7066 28.4731 34.1945 28.2613 31.7235C28.1889 30.8695 28.2044 30.1098 28.7297 29.3914C29.6357 28.1567 30.6277 26.9804 32.0434 26.3459C34.0981 25.4251 36.1511 24.3825 38.3195 23.8578C41.7038 23.0381 45.1674 22.4705 48.6292 22.0504C53.1038 21.5068 57.6128 21.4039 62.0908 22.1035C67.4368 22.9386 70.8314 26.9495 70.8349 32.3219C70.8366 37.5434 70.0478 42.6826 68.9627 47.7584C68.2497 51.0936 67.1405 54.3483 66.1571 57.6235C65.9711 58.2443 66.0986 58.5615 66.6307 58.8582C67.4798 59.3297 68.3065 59.8424 69.135 60.35C72.8207 62.6084 76.5082 64.8633 80.1836 67.1354C80.9724 67.6224 81.7181 68.1763 82.4846 68.6993C82.4708 68.2912 82.3502 67.9791 82.1728 67.7013C81.2652 66.2815 80.4195 64.8136 79.4085 63.4709C77.278 60.6415 75.0511 57.8842 72.8913 55.0771C72.7053 54.8353 72.7105 54.4443 72.6278 54.1237C72.9654 54.1202 73.3512 54.007 73.6354 54.1288C77.4744 55.7784 81.2979 57.4641 85.1283 59.1342C85.7345 59.3983 86.3529 59.6384 86.9643 59.8905C85.893 58.0779 84.6977 56.4455 83.5283 54.7941C81.0705 51.3251 78.2597 48.1819 74.9684 45.4709C74.7772 45.3148 74.7514 44.9599 74.6481 44.6975C74.9443 44.6238 75.2612 44.4403 75.5316 44.4952C79.2087 45.2325 82.8755 46.0127 86.5509 46.7501C87.1279 46.8667 87.7393 46.8187 88.3335 46.8461C88.3559 46.7518 88.38 46.6592 88.4024 46.5649C87.6308 45.891 86.9091 45.1502 86.0807 44.5535C84.0398 43.0839 81.9438 41.6881 79.889 40.2356C79.6841 40.0916 79.6135 39.7589 79.4809 39.512C79.7237 39.4194 79.9614 39.2702 80.2111 39.2462C80.578 39.2102 80.9551 39.2891 81.3254 39.2771C86.3959 39.0936 91.4646 38.905 96.5351 38.7112C97.4824 38.6752 98.4279 38.6117 99.6163 38.5483C97.3859 37.5297 95.3605 36.6792 93.4022 35.6949C88.1354 33.0456 82.8962 30.3448 77.6604 27.6371C77.4124 27.5085 77.2935 27.133 77.1127 26.8723C77.359 26.7094 77.5846 26.4591 77.855 26.3991C79.0572 26.1316 80.2662 25.8983 81.4805 25.6926C83.0185 25.4336 84.5634 25.2159 86.3408 24.9432C85.9292 24.6843 85.7397 24.5197 85.5193 24.4339C84.2138 23.9298 82.9341 23.2919 81.5821 22.9832C78.4061 22.2613 75.1923 21.7143 72.0009 21.0575C71.684 20.9924 71.3051 20.7266 71.1707 20.4505C71.0881 20.2773 71.3464 19.8417 71.5617 19.6428C72.1266 19.1198 72.738 18.638 73.3581 18.1784C77.2436 15.2976 81.1394 12.4305 85.0232 9.54619C85.614 9.1072 86.1548 8.60477 86.718 8.12978C86.6646 8.04575 86.6129 7.96173 86.5595 7.8777C85.1352 8.28411 83.6798 8.60992 82.2899 9.11235C75.5058 11.5731 68.806 14.2378 62.3784 17.5319C61.8204 17.8183 61.4604 17.5714 61.1831 17.2473C61.0401 17.0792 61.1211 16.6488 61.2089 16.371C61.4432 15.6302 61.736 14.9083 62.0908 13.9532C61.3777 14.0303 60.8938 13.9772 60.5062 14.1435C58.858 14.8517 57.2425 15.6371 55.6011 16.3659C55.3497 16.4773 54.9225 16.5734 54.771 16.4465C54.523 16.2407 54.4058 15.8532 54.2956 15.5222C54.2508 15.385 54.3542 15.1912 54.4093 15.0301C55.8267 10.9386 57.2494 6.84712 58.6668 2.75394C58.7753 2.44185 58.8666 2.12633 58.9648 1.81081C58.8993 1.77651 58.8339 1.74222 58.7684 1.70792C58.7081 1.80566 58.6599 1.91369 58.5859 1.99943C55.2808 5.86112 52.637 10.1738 50.0191 14.5019C49.4663 15.4159 49.0322 15.5428 48.1504 14.9049C46.807 13.9309 45.4912 12.9192 44.1667 11.9194C40.3501 9.03861 36.5025 6.20236 32.0899 4.25951C31.308 3.91484 30.4606 3.72279 29.6443 3.45871C29.5754 3.56674 29.5065 3.67477 29.4376 3.78281C29.7734 4.25609 30.0438 4.79453 30.4538 5.19064C33.125 7.77653 35.8084 10.3504 38.5279 12.8849C39.4028 13.7011 40.4224 14.3613 41.3267 15.1484C41.554 15.3473 41.5919 15.7606 41.7159 16.0761C41.4179 16.1532 41.1183 16.299 40.822 16.2939C40.4569 16.287 40.0935 16.1567 39.7301 16.0795C33.9759 14.8569 28.1631 14.0423 22.2969 13.6085C19.6652 13.413 17.0336 13.3736 14.1763 13.9806ZM68.4908 44.5757C68.4288 44.5535 68.3651 44.5294 68.3031 44.5072C68.1378 44.7266 67.9759 44.9479 67.8054 45.1639C66.0848 47.3434 63.9285 48.777 61.0901 49.0239C57.6076 49.3274 53.9167 45.464 53.7152 41.911C53.6084 40.0384 54.5608 39.109 56.0782 38.9513C59.8914 38.5534 63.7183 38.2825 67.5418 38.0081C67.8381 37.9876 68.1619 38.3305 68.4719 38.5037C68.1774 38.6975 67.8932 39.0336 67.5849 39.061C64.9877 39.2788 62.3853 39.4143 59.788 39.6252C58.4774 39.7315 57.1736 39.9321 55.8698 40.1156C55.2257 40.2065 54.7985 40.4483 54.8106 41.2662C54.845 43.48 55.8198 45.1845 57.4268 46.6232C58.498 47.5835 59.7501 47.9384 61.1487 47.8681C64.7741 47.6829 68.4064 43.9721 68.6562 40.2236C68.7078 39.4417 68.3978 38.5483 69.3175 38.0047C69.4174 37.9447 69.4226 37.6875 69.4295 37.5177C69.5225 35.58 69.7137 33.6406 69.6689 31.7063C69.6086 29.1153 68.639 26.8706 66.5842 25.1764C64.6828 23.6091 62.3922 23.153 60.0257 22.9575C56.2143 22.642 52.4062 22.7534 48.6051 23.1427C44.2959 23.5851 40.0005 24.1647 35.9427 25.7423C34.2583 26.3973 32.6531 27.3319 31.1478 28.3402C29.6425 29.3485 28.995 30.8644 29.4307 32.7197C29.4824 32.9375 29.4514 33.1742 29.4738 33.4022C29.7287 36.1836 29.7338 39.0164 30.2936 41.7361C31.9194 49.6618 33.7623 57.5429 35.5363 65.4378C35.8136 66.6707 36.3182 67.0874 37.6271 67.2023C38.4487 67.2743 39.2823 67.2572 40.109 67.2263C41.1665 67.1852 42.2223 67.06 43.2797 67.024C48.4914 66.8405 53.7049 66.7222 58.9148 66.4838C62.5196 66.3192 63.6667 65.1754 64.2006 61.583C64.3177 60.7942 64.3711 59.9848 64.5864 59.2234C65.5302 55.907 66.5601 52.6129 67.4798 49.2914C67.9087 47.7447 68.1584 46.1482 68.4891 44.5757H68.4908Z"
            fill="black" />
        <path
            d="M48.1091 55.715C48.3399 55.0222 48.4673 54.5266 48.6671 54.0619C48.972 53.3554 49.592 53.2388 50.0501 53.8493C50.7235 54.7461 51.3091 55.7098 51.9636 56.6907C52.2512 55.9636 52.5268 55.1474 52.8988 54.3792C53.0797 54.0053 53.4465 53.7207 53.729 53.3949C54.0269 53.7344 54.3869 54.0379 54.6073 54.422C54.9122 54.9536 55.1103 55.5469 55.3996 56.2208C55.7561 55.4406 56.011 54.7736 56.3624 54.1614C56.5122 53.9007 56.8653 53.6024 57.1271 53.6024C57.3734 53.6024 57.7385 53.9213 57.847 54.1837C58.3017 55.2811 58.6668 56.4163 59.0922 57.5275C59.2541 57.9528 59.5056 58.3437 59.6778 58.7673C59.7553 58.9559 59.8345 59.2697 59.7415 59.3726C59.6055 59.5218 59.249 59.6607 59.0991 59.5852C55.5908 57.7916 51.8654 58.6575 48.2107 58.6695C46.466 58.6747 44.8832 59.0639 43.5553 60.2917C43.3745 60.4598 42.8784 60.2883 42.5271 60.2746C42.6408 60.0002 42.6787 59.5767 42.8819 59.4738C44.413 58.7038 44.9487 57.344 45.2707 55.8024C45.3913 55.2228 45.61 54.6501 45.8753 54.1185C46.2456 53.376 46.7829 53.3691 47.2169 54.0722C47.5097 54.5489 47.7526 55.0565 48.1074 55.7167L48.1091 55.715ZM50.9182 57.3972C50.4721 56.4986 50.0966 55.7424 49.7194 54.9845C49.6368 55.0085 49.5541 55.0308 49.4714 55.0548C49.2992 55.8419 49.1287 56.6289 48.9375 57.5052C49.6109 57.4692 50.1431 57.44 50.9182 57.3972ZM58.0881 57.8362C57.7712 56.8707 57.5111 56.0785 57.2528 55.2863C57.1684 55.3017 57.084 55.3171 56.9996 55.3326C56.7103 56.0185 56.4192 56.7061 56.1109 57.4383C56.7551 57.5686 57.301 57.6784 58.0898 57.8379L58.0881 57.8362ZM45.8529 57.747C46.5091 57.6732 47.0344 57.6149 47.5735 57.5549C47.2841 56.8244 47.0016 56.1077 46.6348 55.18C46.3368 56.1574 46.1095 56.9033 45.8529 57.747ZM54.7003 57.3732C54.3697 56.6512 54.0838 56.0253 53.6894 55.1628C53.4172 56.0545 53.2261 56.677 53.0142 57.3732H54.7021H54.7003Z"
            fill="black" />
        <path
            d="M39.911 51.0268C36.4319 51.2137 32.152 47.7978 31.2495 43.4783C31.0515 42.5266 31.5595 41.8493 32.524 41.6984C36.4819 41.0827 40.4397 40.4671 44.401 39.8704C44.9935 39.7812 45.5998 39.7658 46.2009 39.7607C47.5684 39.7504 47.5856 39.7572 47.8732 41.0399C48.2659 42.7924 48.1712 44.5603 47.3496 46.1328C45.8409 49.0188 43.6605 51.0748 39.9093 51.0251L39.911 51.0268ZM32.2967 42.7872C32.6635 45.1056 33.7383 46.829 35.6827 48.3689C37.908 50.1317 41.22 50.4386 43.4193 49.0856C45.7737 47.6366 47.3445 44.2345 46.8777 41.6675C46.7554 40.997 46.4385 40.7621 45.7651 40.8581C44.8885 40.9833 43.998 41.0107 43.1214 41.1411C39.5304 41.6743 35.9411 42.2299 32.295 42.7872H32.2967Z"
            fill="black" />
        <path
            d="M62.437 41.7309C63.1879 41.8818 64.6588 42.8884 64.8052 43.42C64.9791 44.0493 64.4228 44.9393 63.5031 45.5377C62.8814 45.9441 62.3526 45.6526 61.8531 45.3165C61.6878 45.2051 61.519 44.9324 61.5362 44.7489C61.581 44.2705 61.4329 43.991 61.0058 43.7612C60.8818 43.6944 60.8146 43.2056 60.9179 43.0976C61.3847 42.6055 61.9238 42.1802 62.437 41.7309Z"
            fill="black" />
        <path
            d="M43.6569 44.7352C43.2487 45.1708 42.9577 45.6887 42.5168 45.8979C41.9932 46.1465 41.3301 46.2134 41.008 45.4263C40.9581 45.3028 40.667 45.248 40.4776 45.2154C39.8351 45.1073 39.675 44.7181 39.9385 44.1436C40.2485 43.4697 40.4793 42.7838 41.442 43.252C41.4575 43.2605 41.5006 43.2399 41.5144 43.2228C41.8657 42.7667 42.3583 42.4306 42.7975 42.921C43.1816 43.3514 43.3228 43.9962 43.6569 44.7352Z"
            fill="black" />
    </g>
    <defs>
        <clipPath id="clip0_3_10">
            <rect width="102" height="79" fill="white" />
        </clipPath>
    </defs>
</svg>
    